<svg width="187" height="260" viewBox="0 0 187 260" fill="none" xmlns="http://www.w3.org/2000/svg">
<mask id="path-1-inside-1_21_2" fill="white">
<path d="M0.5 131V247.5C4.83868 249.137 13.9778 253.44 18.5 254.5C18.8882 254.588 32.8484 257.591 33.2252 257.676C39.6813 259.176 46.1801 259.759 52.7996 259.727C53.9539 259.716 55.1079 259.705 56.2623 259.702C57.0357 259.701 57.8092 259.699 58.5826 259.695L59.6938 259.69C84.2092 259.586 107.191 248.505 127.117 235.134C127.675 234.76 128.233 234.387 128.791 234.014C131.371 232.294 133.948 230.567 136.503 228.81C139.35 226.85 142.214 224.919 145.09 223.002C145.999 222.397 146.907 221.791 147.815 221.184C151.709 218.579 155.64 216.05 159.638 213.607C161.01 212.768 162.373 211.916 163.733 211.057C165.343 210.037 166.951 209.014 168.576 208.018C173.412 205.074 178.887 202.23 182.759 198.022L183.29 197.397C184.248 196.315 185.026 195.206 185.75 193.956C187.384 190.382 187.357 184.968 186.013 181.279C183.176 173.977 181.53 167.289 180.575 159.542C178.824 145.297 175.636 131.967 169.913 118.779L169.391 117.589C159.828 95.6718 147.451 75.4803 133.995 55.7565C133.375 54.8488 132.756 53.9409 132.138 53.0324L131.425 51.9836C130.07 49.9929 128.713 48.0195 127.562 45.9024C125.552 42.1586 123.392 38.3127 120.299 35.3485L119.561 34.7368C118.25 33.6288 117.055 32.6936 115.389 32.2058C111.079 31.0221 108.681 28.9581 105.669 25.7145C104.353 24.2832 102.99 23.0716 101.454 21.8771L100.577 21.21C90.5115 13.0927 73.6646 0.0354708 60.0579 0.725498C57.1108 1.2122 54.2695 3.9242 52.399 6.16134C51.8671 6.82424 51.3341 7.43518 50.7319 8.03714C49.6507 9.08413 48.5954 10.1226 47.6307 11.2788C45.3634 14.1193 42.9299 16.6982 40.1744 19.0753C39.0474 20.0406 37.9809 21.0449 36.9408 22.103L36.1701 22.9008C33.9402 25.1849 31.1297 27.6087 30.0684 30.6788C29.3387 35.4075 30.9843 39.5466 33.2464 43.5927C33.8067 44.5354 34.5419 45.4148 34.3851 46.5464C34.0933 47.3702 34.0933 47.3702 34.0898 49.2419L34.0938 49.9757C34.089 50.8739 34.1035 51.7614 34.1362 52.6599L34.1362 52.66C35.8348 57.7433 35.8348 57.7434 46.6164 65.7509L47.6956 66.525C48.4902 67.1004 49.2162 67.5634 50.1135 67.9595C53.9887 68.9813 57.3918 68.4708 60.8433 66.5029C61.427 66.1624 62.0187 65.8358 62.6109 65.5104C63.9661 65.009 64.7713 65.2614 66.0896 65.8128C74.5721 69.4566 84.4067 68.9792 93.0601 66.1089L93.7976 65.8486V65.8488C93.7976 66.525 93.7976 66.525 94.2556 67.1561C100.69 75.463 103.379 87.5866 104.857 97.7588L104.984 98.6513C105.501 102.05 105.687 104.452 103.659 107.433L103.659 107.433C97.0582 116.984 97.0582 116.984 94.2342 140.766L94.1366 141.599C90.2204 139.043 86.4271 137.249 81.8496 136.125C69.7262 133.507 57.7763 135.674 47.3658 142.287C46.6594 142.745 45.9504 143.198 45.2392 143.648C44.5825 144.063 43.9265 144.479 43.2716 144.896L42.6108 145.319C40.1658 143.279 24 123 0.5 131Z"/>
</mask>
<path d="M0.5 247.5H-999.5V938.961L-352.572 1183.1L0.5 247.5ZM0.5 131L-321.764 -815.65L-999.5 -584.931V131H0.5ZM42.6108 145.319L-598.069 913.127L-35.5942 1382.47L581.505 987.692L42.6108 145.319ZM43.2716 144.896L-494.315 -698.312L-494.969 -697.895L-495.623 -697.477L43.2716 144.896ZM45.2392 143.648L579.244 989.129L579.56 988.93L579.876 988.73L45.2392 143.648ZM47.3658 142.287L-488.867 -701.783L-492.508 -699.47L-496.129 -697.125L47.3658 142.287ZM81.8496 136.125L320.326 -835.023L306.661 -838.379L292.907 -841.349L81.8496 136.125ZM94.1366 141.599L-452.471 978.988L899.585 1861.54L1087.35 257.892L94.1366 141.599ZM94.2342 140.766L-898.789 22.8473L-898.886 23.66L-898.981 24.4729L94.2342 140.766ZM103.659 107.433L926.319 675.967L931.072 669.089L935.709 662.133L103.659 107.433ZM103.659 107.433L-723.115 -455.101L-725.772 -451.196L-728.392 -447.267L103.659 107.433ZM104.984 98.6513L-885.078 239.28L-884.379 244.202L-883.631 249.117L104.984 98.6513ZM104.857 97.7588L1094.92 -42.8699L1094.69 -44.4546L1094.46 -46.0386L104.857 97.7588ZM94.2556 67.1561L-715.083 654.499L-705.888 667.168L-696.302 679.544L94.2556 67.1561ZM93.7976 65.8486H1093.8V-1347.4L-238.931 -877.174L93.7976 65.8486ZM93.0601 66.1089L407.896 1015.25L416.872 1012.28L425.789 1009.13L93.0601 66.1089ZM66.0896 65.8128L460.786 -852.999L456.376 -854.893L451.947 -856.746L66.0896 65.8128ZM62.6109 65.5104L-284.4 -872.351L-353.9 -846.635L-418.851 -810.956L62.6109 65.5104ZM60.8433 66.5029L556.142 935.226L560.473 932.756L564.78 930.244L60.8433 66.5029ZM50.1135 67.9595L-353.823 982.747L-281.398 1014.73L-204.843 1034.91L50.1135 67.9595ZM47.6956 66.525L634.176 -743.438L632.372 -744.744L630.562 -746.043L47.6956 66.525ZM46.6164 65.7509L-549.625 868.556L-542.978 873.493L-536.25 878.319L46.6164 65.7509ZM34.1362 52.66L-936.006 295.196L-926.604 332.805L-914.318 369.573L34.1362 52.66ZM34.1362 52.6599L-965.2 89.0886L-961.388 193.67L-936.006 295.196L34.1362 52.6599ZM34.0938 49.9757L1034.08 55.3608L1034.11 49.965L1034.08 44.5693L34.0938 49.9757ZM34.0898 49.2419L-965.908 47.3831L-965.915 51.0157L-965.896 54.6483L34.0898 49.2419ZM34.3851 46.5464L976.993 380.448L1010.96 284.552L1024.92 183.779L34.3851 46.5464ZM33.2464 43.5927L-839.605 531.579L-833.135 543.151L-826.362 554.547L33.2464 43.5927ZM30.0684 30.6788L-915.048 -296.055L-944.492 -210.884L-958.235 -121.821L30.0684 30.6788ZM36.1701 22.9008L751.702 721.481L753.568 719.57L755.423 717.649L36.1701 22.9008ZM36.9408 22.103L-676.209 -678.909L-679.274 -675.79L-682.312 -672.645L36.9408 22.103ZM40.1744 19.0753L690.694 778.564L692.028 777.422L693.357 776.275L40.1744 19.0753ZM47.6307 11.2788L-720.207 -629.365L-727.154 -621.039L-733.919 -612.564L47.6307 11.2788ZM50.7319 8.03714L746.401 726.4L752.077 720.903L757.665 715.317L50.7319 8.03714ZM52.399 6.16134L-714.77 -635.284L-721.244 -627.541L-727.561 -619.668L52.399 6.16134ZM60.0579 0.725498L9.41038 -997.991L-47.0756 -995.127L-102.878 -985.911L60.0579 0.725498ZM100.577 21.21L-527.159 799.636L-516.223 808.455L-505.044 816.963L100.577 21.21ZM101.454 21.8771L715.212 -767.617L711.16 -770.767L707.075 -773.876L101.454 21.8771ZM105.669 25.7145L-630.452 702.564L-628.796 704.366L-627.131 706.159L105.669 25.7145ZM115.389 32.2058L396.401 -927.499L388.323 -929.864L380.207 -932.093L115.389 32.2058ZM119.561 34.7368L-526.102 798.36L-522.116 801.73L-518.096 805.058L119.561 34.7368ZM120.299 35.3485L812.276 -686.572L785.997 -711.761L757.956 -734.973L120.299 35.3485ZM127.562 45.9024L-753.479 518.941L-752.288 521.159L-751.086 523.371L127.562 45.9024ZM131.425 51.9836L958.565 -510.013L958.316 -510.378L958.068 -510.744L131.425 51.9836ZM132.138 53.0324L-695.002 615.029L-694.792 615.337L-694.583 615.646L132.138 53.0324ZM133.995 55.7565L960.052 -507.829L959.977 -507.939L959.902 -508.05L133.995 55.7565ZM169.391 117.589L-747.15 517.529L-746.876 518.156L-746.602 518.782L169.391 117.589ZM169.913 118.779L1087.26 -279.308L1086.59 -280.862L1085.91 -282.414L169.913 118.779ZM180.575 159.542L-811.95 281.584L-811.937 281.689L-811.924 281.795L180.575 159.542ZM186.013 181.279L1125.57 -161.1L1121.98 -170.976L1118.17 -180.775L186.013 181.279ZM185.75 193.956L1050.97 695.347L1075.14 653.634L1095.19 609.79L185.75 193.956ZM183.29 197.397L-565.3 -465.636L-572.099 -457.959L-578.74 -450.145L183.29 197.397ZM182.759 198.022L918.663 875.107L932.017 860.594L944.788 845.565L182.759 198.022ZM168.576 208.018L-351.392 -646.168L-352.645 -645.405L-353.895 -644.639L168.576 208.018ZM163.733 211.057L697.963 1056.4L698.399 1056.12L698.836 1055.84L163.733 211.057ZM159.638 213.607L-361.745 -639.716L-361.757 -639.709L-361.769 -639.701L159.638 213.607ZM147.815 221.184L703.837 1052.35L703.844 1052.35L147.815 221.184ZM145.09 223.002L-409.104 -609.386L-409.327 -609.237L-409.55 -609.088L145.09 223.002ZM136.503 228.81L703.12 1052.79L703.357 1052.63L703.593 1052.47L136.503 228.81ZM128.791 234.014L-425.914 -598.033L-426.122 -597.895L-426.329 -597.756L128.791 234.014ZM127.117 235.134L684.301 1065.52L684.317 1065.51L684.333 1065.5L127.117 235.134ZM59.6938 259.69L55.4764 -740.302L54.9624 -740.299L54.4484 -740.297L59.6938 259.69ZM58.5826 259.695L62.6861 1259.69L63.2571 1259.68L63.8281 1259.68L58.5826 259.695ZM56.2623 259.702L54.5656 -740.296L53.9996 -740.295L53.4335 -740.294L56.2623 259.702ZM52.7996 259.727L57.668 1259.71L59.8603 1259.7L62.0526 1259.68L52.7996 259.727ZM33.2252 257.676L259.449 -716.399L256.804 -717.013L254.156 -717.613L33.2252 257.676ZM18.5 254.5L-209.613 1228.13L-206.034 1228.97L-202.449 1229.79L18.5 254.5ZM0.5 247.5H1000.5V131H0.5H-999.5V247.5H0.5ZM0.5 131L322.764 1077.65C-21.502 1194.85 -318.825 1090.58 -481.044 994.275C-557.054 949.15 -610.978 902.77 -641.353 874.626C-657.108 860.028 -668.784 848.159 -671.942 844.949C-676.416 840.399 -669.371 847.581 -665.381 851.573C-662.338 854.619 -655.556 861.376 -646.773 869.728C-639.244 876.888 -621.653 893.448 -598.069 913.127L42.6108 145.319L683.291 -622.489C706.721 -602.938 724.133 -586.541 731.456 -579.577C740.033 -571.421 746.583 -564.892 749.368 -562.105C752.84 -558.63 759.264 -552.085 754.068 -557.369C749.467 -562.048 735.943 -575.773 717.961 -592.434C683.133 -624.704 623.241 -676.036 539.946 -725.487C363.158 -830.442 46.002 -940.847 -321.764 -815.65L0.5 131ZM42.6108 145.319L581.505 987.692L582.166 987.27L43.2716 144.896L-495.623 -697.477L-496.283 -697.055L42.6108 145.319ZM43.2716 144.896L580.858 988.105C580.159 988.551 579.608 988.899 579.244 989.129L45.2392 143.648L-488.766 -701.834C-490.443 -700.774 -492.306 -699.593 -494.315 -698.312L43.2716 144.896ZM45.2392 143.648L579.876 988.73C583.279 986.577 586.954 984.229 590.861 981.7L47.3658 142.287L-496.129 -697.125C-493.636 -698.74 -491.378 -700.181 -489.398 -701.434L45.2392 143.648ZM47.3658 142.287L583.598 986.358C373.133 1120.06 116.778 1166.71 -129.208 1113.6L81.8496 136.125L292.907 -841.349C22.6742 -899.698 -257.58 -848.718 -488.867 -701.783L47.3658 142.287ZM81.8496 136.125L-156.627 1107.27C-280.336 1076.9 -379.622 1026.54 -452.471 978.988L94.1366 141.599L640.744 -695.79C560.063 -748.455 453.19 -802.397 320.326 -835.023L81.8496 136.125ZM94.1366 141.599L1087.35 257.892L1087.45 257.058L94.2342 140.766L-898.981 24.4729L-899.078 25.3064L94.1366 141.599ZM94.2342 140.766L1087.26 258.684C1088.55 247.811 1087.48 257.403 1085.87 268.618C1084.46 278.508 1077.52 328.171 1059.81 390.84C1037.71 468.997 1006.65 541.384 969.674 606.597C944.069 651.753 916.664 689.938 926.319 675.967L103.659 107.433L-719.001 -461.1C-719.142 -460.897 -720.787 -458.52 -722.574 -455.91C-724.474 -453.136 -727.806 -448.248 -731.825 -442.19C-739.538 -430.563 -753.876 -408.515 -770.077 -379.944C-809.002 -311.302 -841.469 -235.638 -864.745 -153.314C-883.643 -86.4787 -891.516 -31.7595 -893.932 -14.8828C-896.539 3.3188 -898.668 21.8292 -898.789 22.8473L94.2342 140.766ZM103.659 107.433L935.709 662.133L935.709 662.133L103.659 107.433L-728.392 -447.267L-728.392 -447.267L103.659 107.433ZM103.659 107.433L930.433 669.967C1019.43 539.164 1082.17 380.707 1100.12 204.599C1107.92 128.071 1105.49 64.784 1102.26 23.315C1099.23 -15.5388 1094.47 -46.0717 1093.6 -51.8141L104.984 98.6513L-883.631 249.117C-884.246 245.074 -888.782 216.116 -891.694 178.761C-894.81 138.792 -897.227 76.9291 -889.57 1.79861C-871.905 -171.513 -810.085 -327.279 -723.115 -455.101L103.659 107.433ZM104.984 98.6513L1095.05 -41.9774L1094.92 -42.8699L104.857 97.7588L-885.205 238.387L-885.078 239.28L104.984 98.6513ZM104.857 97.7588L1094.46 -46.0386C1091.76 -64.6506 1065.24 -312.314 884.813 -545.232L94.2556 67.1561L-696.302 679.544C-791.559 556.572 -834.417 439.983 -853.453 378.786C-873.714 313.655 -881.809 261.796 -884.75 241.556L104.857 97.7588ZM94.2556 67.1561L903.594 -520.187C897.426 -528.686 915.503 -504.318 933.021 -477.304C954.935 -443.511 1000.97 -368.72 1037.62 -264.087C1076.26 -153.792 1087.57 -59.2831 1091.49 -1.77368C1094.32 39.8204 1093.8 78.85 1093.8 65.8488H93.7976H-906.202C-906.202 65.8505 -906.202 65.8768 -906.202 65.9065C-906.202 65.9386 -906.202 65.9891 -906.202 66.0506C-906.202 66.1698 -906.202 66.369 -906.202 66.6144C-906.202 67.083 -906.201 67.9212 -906.198 68.9657C-906.192 70.8987 -906.176 74.7631 -906.11 79.6357C-905.993 88.2144 -905.636 108.499 -903.879 134.273C-899.944 191.992 -888.608 286.667 -849.914 397.126C-813.203 501.922 -767.082 576.874 -745.039 610.866C-734.038 627.831 -724.891 640.782 -721.216 645.956C-719.069 648.979 -717.349 651.366 -716.49 652.555C-716.024 653.2 -715.649 653.718 -715.437 654.011C-715.326 654.164 -715.235 654.289 -715.18 654.365C-715.128 654.436 -715.083 654.498 -715.083 654.499L94.2556 67.1561ZM93.7976 65.8488H1093.8V65.8486H93.7976H-906.202V65.8488H93.7976ZM93.7976 65.8486L-238.931 -877.174L-239.669 -876.914L93.0601 66.1089L425.789 1009.13L426.526 1008.87L93.7976 65.8486ZM93.0601 66.1089L-221.776 -883.037C-66.7047 -934.475 185.927 -971.071 460.786 -852.999L66.0896 65.8128L-328.607 984.624C-36.7826 1109.98 235.518 1072.43 407.896 1015.25L93.0601 66.1089ZM66.0896 65.8128L451.947 -856.746C447.126 -858.762 417.736 -871.198 379.427 -883.879C338.041 -897.578 273.626 -915.985 192.778 -926.454C5.86702 -950.656 -158.461 -918.948 -284.4 -872.351L62.6109 65.5104L409.622 1003.37C285.038 1049.47 121.79 1081.05 -64.0502 1056.99C-144.363 1046.59 -208.244 1028.32 -249.066 1014.8C-286.811 1002.31 -315.606 990.112 -319.768 988.371L66.0896 65.8128ZM62.6109 65.5104L-418.851 -810.956C-419.327 -810.695 -430.141 -804.795 -443.093 -797.238L60.8433 66.5029L564.78 930.244C558.347 933.996 553.086 936.965 549.741 938.835C546.564 940.611 544.098 941.964 544.073 941.977L62.6109 65.5104ZM60.8433 66.5029L-434.455 -802.22C-343.584 -854.03 -225.006 -902.225 -82.2246 -922.099C61.6566 -942.126 193.815 -928.327 305.07 -898.993L50.1135 67.9595L-204.843 1034.91C63.5196 1105.67 335.379 1061.09 556.142 935.226L60.8433 66.5029ZM50.1135 67.9595L454.05 -846.828C541.486 -808.219 604.07 -765.238 634.176 -743.438L47.6956 66.525L-538.785 876.488C-507.09 899.438 -443.054 943.346 -353.823 982.747L50.1135 67.9595ZM47.6956 66.525L630.562 -746.043L629.483 -746.817L46.6164 65.7509L-536.25 878.319L-535.171 879.093L47.6956 66.525ZM46.6164 65.7509L642.858 -737.054C636.033 -742.123 645.676 -735.05 656.078 -726.922C663.422 -721.183 709.425 -685.759 760.758 -631.913C827.157 -562.266 887.681 -478.338 935.074 -380.605C968.688 -311.286 989.151 -244.621 982.591 -264.253L34.1362 52.66L-914.318 369.573C-914.312 369.593 -914.02 370.468 -913.691 371.448C-913.338 372.499 -912.739 374.276 -911.996 376.455C-910.591 380.573 -907.946 388.252 -904.462 397.78C-897.657 416.389 -884.553 450.702 -864.501 492.053C-816.293 591.466 -754.776 676.847 -686.818 748.131C-633.925 803.613 -585.794 840.857 -575.365 849.006C-567.001 855.541 -560.09 860.74 -556.899 863.133C-553.631 865.584 -550.427 867.96 -549.625 868.556L46.6164 65.7509ZM34.1362 52.66L1004.28 -189.876L1004.28 -189.876L34.1362 52.6599L-936.006 295.196L-936.006 295.196L34.1362 52.66ZM34.1362 52.6599L1033.47 16.2313C1033.93 28.7131 1034.15 41.7769 1034.08 55.3608L34.0938 49.9757L-965.892 44.5906C-965.975 59.9709 -965.721 74.8097 -965.2 89.0886L34.1362 52.6599ZM34.0938 49.9757L1034.08 44.5693L1034.08 43.8355L34.0898 49.2419L-965.896 54.6483L-965.892 55.3821L34.0938 49.9757ZM34.0898 49.2419L1034.09 51.1006C1034.1 47.2477 1034.11 56.5565 1033.93 66.4313C1033.76 75.4161 1033.15 111.042 1028.18 156.399C1022.04 212.481 1011.24 267.043 996.376 319.54C985.799 356.886 973.639 389.917 976.993 380.448L34.3851 46.5464L-908.223 -287.355C-908.224 -287.352 -908.233 -287.325 -908.244 -287.295C-908.256 -287.262 -908.274 -287.21 -908.296 -287.148C-908.339 -287.028 -908.409 -286.829 -908.496 -286.584C-908.662 -286.115 -908.954 -285.286 -909.316 -284.254C-909.997 -282.313 -911.295 -278.593 -912.883 -273.906C-915.955 -264.831 -921.693 -247.506 -927.943 -225.436C-942.892 -172.649 -953.743 -117.815 -959.924 -61.397C-964.929 -15.7022 -965.562 20.3256 -965.736 29.8626C-965.856 36.4182 -965.886 41.5931 -965.896 43.6269C-965.902 44.8439 -965.905 45.8305 -965.906 46.3655C-965.908 46.8767 -965.908 47.3451 -965.908 47.3831L34.0898 49.2419ZM34.3851 46.5464L1024.92 183.779C1061.9 -83.1254 983.227 -290.386 932.473 -394.204C909.132 -441.947 886.933 -477.294 881.943 -485.287C867.339 -508.679 886.156 -478.63 892.855 -467.361L33.2464 43.5927L-826.362 554.547C-819.383 566.287 -800.264 596.799 -814.577 573.873C-819.277 566.345 -841.197 531.465 -864.303 484.201C-914.589 381.342 -992.975 175.087 -956.154 -90.6866L34.3851 46.5464ZM33.2464 43.5927L906.097 -444.394C936.337 -390.304 1069.59 -148.737 1018.37 183.178L30.0684 30.6788L-958.235 -121.821C-1010.91 219.552 -874.369 469.398 -839.605 531.579L33.2464 43.5927ZM30.0684 30.6788L975.185 357.412C915.318 530.586 822.429 642.45 785.784 684.398C765.055 708.126 747.825 725.436 743.165 730.118C727.849 745.504 748.886 724.365 751.702 721.481L36.1701 22.9008L-679.362 -675.68C-677.661 -677.421 -657.812 -697.401 -674.315 -680.822C-680.162 -674.948 -698.579 -656.411 -720.422 -631.408C-759.295 -586.91 -854.119 -472.298 -915.048 -296.055L30.0684 30.6788ZM36.1701 22.9008L755.423 717.649L756.194 716.851L36.9408 22.103L-682.312 -672.645L-683.083 -671.847L36.1701 22.9008ZM36.9408 22.103L750.091 723.115C733.12 740.379 713.355 759.155 690.694 778.564L40.1744 19.0753L-610.346 -740.414C-635.26 -719.074 -657.159 -698.289 -676.209 -678.909L36.9408 22.103ZM40.1744 19.0753L693.357 776.275C747.761 729.346 792.532 681.035 829.181 635.122L47.6307 11.2788L-733.919 -612.564C-701.805 -652.797 -661.901 -695.949 -613.009 -738.125L40.1744 19.0753ZM47.6307 11.2788L815.469 651.923C795.583 675.756 778.178 694.292 766.529 706.288C755.595 717.546 746.712 726.098 746.401 726.4L50.7319 8.03714L-644.937 -710.326C-645.479 -709.801 -681.482 -675.779 -720.207 -629.365L47.6307 11.2788ZM50.7319 8.03714L757.665 715.317C789.942 683.057 814.844 653.819 832.359 631.991L52.399 6.16134L-727.561 -619.668C-711.11 -640.171 -687.273 -668.186 -656.201 -699.243L50.7319 8.03714ZM52.399 6.16134L819.568 647.607C792.477 680.007 742.541 735.668 668.876 792.83C604.804 842.548 451.873 949.564 222.994 987.362L60.0579 0.725498L-102.878 -985.911C-334.705 -947.627 -490.529 -839.011 -557.226 -787.256C-633.516 -728.057 -685.808 -669.922 -714.77 -635.284L52.399 6.16134ZM60.0579 0.725498L110.706 999.442C-51.2374 1007.65 -179.222 973.994 -254.178 948.245C-331.628 921.639 -389.511 890.572 -423.101 870.932C-458.469 850.253 -484.935 831.549 -499.883 820.575C-515.176 809.348 -526.2 800.409 -527.159 799.636L100.577 21.21L728.313 -757.216C721.086 -763.044 663.904 -810.282 586.392 -855.602C538.103 -883.837 318.243 -1013.65 9.41038 -997.991L60.0579 0.725498ZM100.577 21.21L-505.044 816.963L-504.168 817.63L101.454 21.8771L707.075 -773.876L706.199 -774.543L100.577 21.21ZM101.454 21.8771L-512.305 811.371C-545.373 785.664 -587.011 749.81 -630.452 702.564L105.669 25.7145L841.79 -651.135C795.717 -701.243 751.353 -739.52 715.212 -767.617L101.454 21.8771ZM105.669 25.7145L-627.131 706.159C-571.048 766.557 -414.568 923.691 -149.428 996.504L115.389 32.2058L380.207 -932.093C484.608 -903.422 589.353 -855.975 686.76 -787.211C771.858 -727.136 827.013 -667.067 838.468 -654.73L105.669 25.7145ZM115.389 32.2058L-165.622 991.91C-382.737 928.337 -519.998 803.521 -526.102 798.36L119.561 34.7368L765.223 -728.886C756.498 -736.263 616.847 -862.95 396.401 -927.499L115.389 32.2058ZM119.561 34.7368L-518.096 805.058L-517.357 805.67L120.299 35.3485L757.956 -734.973L757.217 -735.584L119.561 34.7368ZM120.299 35.3485L-571.677 757.269C-641.065 690.758 -686.54 627.455 -712.421 587.906C-736.978 550.38 -753.473 518.953 -753.479 518.941L127.562 45.9024L1008.6 -427.136C1006.59 -430.891 988.008 -466.113 961.095 -507.24C932.858 -550.389 884.757 -617.097 812.276 -686.572L120.299 35.3485ZM127.562 45.9024L-751.086 523.371C-734.303 554.257 -719.118 578.409 -709.771 592.831C-701.539 605.534 -693.446 617.314 -695.218 614.711L131.425 51.9836L958.068 -510.744C954.941 -515.337 961.678 -505.54 968.605 -494.851C976.647 -482.442 990.578 -460.335 1006.21 -431.567L127.562 45.9024ZM131.425 51.9836L-695.715 613.98L-695.002 615.029L132.138 53.0324L959.277 -508.964L958.565 -510.013L131.425 51.9836ZM132.138 53.0324L-694.583 615.646C-693.602 617.086 -692.693 618.419 -691.912 619.563L133.995 55.7565L959.902 -508.05C959.443 -508.721 959.114 -509.204 958.858 -509.581L132.138 53.0324ZM133.995 55.7565L-692.063 619.342C-694.973 615.077 -721.2 576.998 -747.15 517.529L169.391 117.589L1085.93 -282.352C1040.86 -385.655 989.876 -464.116 960.052 -507.829L133.995 55.7565ZM169.391 117.589L-746.602 518.782L-746.081 519.972L169.913 118.779L1085.91 -282.414L1085.38 -283.604L169.391 117.589ZM169.913 118.779L-747.435 516.866C-787.606 424.296 -804.637 341.055 -811.95 281.584L180.575 159.542L1173.1 37.5004C1162.28 -50.4612 1138.88 -160.362 1087.26 -279.308L169.913 118.779ZM180.575 159.542L-811.924 281.795C-801.231 368.605 -780.034 456.08 -746.145 543.333L186.013 181.279L1118.17 -180.775C1130.79 -148.28 1142.85 -111.625 1152.91 -71.2431C1162.94 -31.0076 1169.18 5.68261 1173.07 37.289L180.575 159.542ZM186.013 181.279L-753.549 523.658C-801.428 392.268 -814.168 271.009 -812.918 174.683C-811.712 81.8097 -796.581 -62.465 -723.691 -221.877L185.75 193.956L1095.19 609.79C1169.71 446.803 1185.65 298.034 1186.91 200.638C1188.22 99.7892 1174.8 -26.0208 1125.57 -161.1L186.013 181.279ZM185.75 193.956L-679.471 -307.434C-651.379 -355.911 -614.176 -410.453 -565.3 -465.636L183.29 197.397L931.88 860.43C982.673 803.083 1021.43 746.322 1050.97 695.347L185.75 193.956ZM183.29 197.397L-578.74 -450.145L-579.27 -449.52L182.759 198.022L944.788 845.565L945.319 844.94L183.29 197.397ZM182.759 198.022L-553.146 -479.063C-475.431 -563.529 -400.973 -614.042 -370.822 -633.736C-354.365 -644.485 -341.419 -652.164 -339.203 -653.482C-330.669 -658.563 -344.865 -650.141 -351.392 -646.168L168.576 208.018L688.544 1062.2C684.435 1064.7 672.736 1071.67 683.779 1065.09C688.502 1062.28 703.965 1053.08 722.879 1040.72C757.946 1017.82 837.077 963.781 918.663 875.107L182.759 198.022ZM168.576 208.018L-353.895 -644.639C-359.382 -641.277 -363.888 -638.453 -366.664 -636.705C-368.078 -635.815 -369.273 -635.058 -370.018 -634.587C-370.394 -634.349 -370.735 -634.133 -370.944 -634C-371.198 -633.839 -371.282 -633.786 -371.37 -633.73L163.733 211.057L698.836 1055.84C699.15 1055.64 699.469 1055.44 699.617 1055.35C699.81 1055.23 699.872 1055.19 699.899 1055.17C699.959 1055.13 699.569 1055.38 698.962 1055.76C697.798 1056.49 694.909 1058.31 691.047 1060.68L168.576 208.018ZM163.733 211.057L-370.497 -634.282C-369.377 -634.99 -366.161 -637.018 -361.745 -639.716L159.638 213.607L681.02 1066.93C688.182 1062.55 694.124 1058.82 697.963 1056.4L163.733 211.057ZM159.638 213.607L-361.769 -639.701C-378.933 -629.213 -394.465 -619.176 -408.214 -609.979L147.815 221.184L703.844 1052.35C697.883 1056.33 690.212 1061.31 681.045 1066.91L159.638 213.607ZM147.815 221.184L-408.207 -609.984C-408.145 -610.025 -408.17 -610.008 -408.327 -609.903C-408.492 -609.793 -408.72 -609.641 -409.104 -609.386L145.09 223.002L699.283 1055.39C700.286 1054.72 701.962 1053.61 703.837 1052.35L147.815 221.184ZM145.09 223.002L-409.55 -609.088C-415.339 -605.23 -422.53 -600.393 -430.586 -594.846L136.503 228.81L703.593 1052.47C701.229 1054.09 699.767 1055.07 699.73 1055.09L145.09 223.002ZM136.503 228.81L-430.114 -595.171C-428.126 -596.538 -426.669 -597.522 -426.009 -597.967C-425.391 -598.383 -425.187 -598.517 -425.914 -598.033L128.791 234.014L683.496 1066.06C686.921 1063.78 694.398 1058.79 703.12 1052.79L136.503 228.81ZM128.791 234.014L-426.329 -597.756C-427.597 -596.91 -428.854 -596.069 -430.099 -595.234L127.117 235.134L684.333 1065.5C684.203 1065.59 684.062 1065.68 683.911 1065.78L128.791 234.014ZM127.117 235.134L-430.067 -595.255C-388 -623.481 -211.409 -739.176 55.4764 -740.302L59.6938 259.69L63.9113 1259.68C379.827 1258.35 602.382 1120.49 684.301 1065.52L127.117 235.134ZM59.6938 259.69L54.4484 -740.297L53.3371 -740.291L58.5826 259.695L63.8281 1259.68L64.9393 1259.68L59.6938 259.69ZM58.5826 259.695L54.4791 -740.296C54.521 -740.296 54.55 -740.296 54.5656 -740.296L56.2623 259.702L57.9589 1259.7C59.5215 1259.7 61.0973 1259.69 62.6861 1259.69L58.5826 259.695ZM56.2623 259.702L53.4335 -740.294C48.5853 -740.28 44.3214 -740.238 43.5466 -740.231L52.7996 259.727L62.0526 1259.68C62.6929 1259.68 62.4776 1259.68 62.0993 1259.68C61.6465 1259.69 60.5618 1259.69 59.0911 1259.7L56.2623 259.702ZM52.7996 259.727L47.9312 -740.262C103.606 -740.533 176.419 -735.682 259.449 -716.399L33.2252 257.676L-192.999 1231.75C-97.056 1254.03 -11.2455 1260.05 57.668 1259.71L52.7996 259.727ZM33.2252 257.676L254.156 -717.613C252.339 -718.025 250.905 -718.344 250.24 -718.492C249.454 -718.667 248.811 -718.809 248.398 -718.9C247.583 -719.079 246.933 -719.221 246.603 -719.293C245.916 -719.444 245.359 -719.565 245.111 -719.618C244.556 -719.739 244.049 -719.849 243.746 -719.914C243.08 -720.058 242.308 -720.224 241.589 -720.379C240.113 -720.698 238.219 -721.106 236.46 -721.485C234.636 -721.878 232.947 -722.241 231.692 -722.512C231.045 -722.652 230.666 -722.733 230.501 -722.769C230.388 -722.793 230.563 -722.756 230.882 -722.686C231.012 -722.658 231.477 -722.557 232.099 -722.421C232.398 -722.356 233.021 -722.22 233.815 -722.045C234.219 -721.955 234.85 -721.816 235.623 -721.644C236.283 -721.497 237.679 -721.186 239.449 -720.785L18.5 254.5L-202.449 1229.79C-200.673 1230.19 -199.27 1230.5 -198.599 1230.65C-197.817 1230.82 -197.176 1230.97 -196.759 1231.06C-195.94 1231.24 -195.285 1231.38 -194.949 1231.45C-194.251 1231.61 -193.685 1231.73 -193.432 1231.78C-192.866 1231.91 -192.35 1232.02 -192.044 1232.09C-191.369 1232.23 -190.591 1232.4 -189.869 1232.55C-188.386 1232.87 -186.488 1233.28 -184.726 1233.66C-182.899 1234.06 -181.209 1234.42 -179.949 1234.69C-179.3 1234.83 -178.917 1234.91 -178.746 1234.95C-178.63 1234.98 -178.798 1234.94 -179.107 1234.87C-179.231 1234.85 -179.689 1234.75 -180.301 1234.61C-180.594 1234.55 -181.213 1234.41 -182.002 1234.24C-182.403 1234.15 -183.035 1234.01 -183.812 1233.84C-184.468 1233.69 -185.894 1233.38 -187.705 1232.97L33.2252 257.676ZM18.5 254.5L246.613 -719.135C280.465 -711.203 307.139 -703.043 322.743 -698.025C339.47 -692.646 352.934 -687.808 361.72 -684.554C378.511 -678.334 390.925 -673.16 393.908 -671.918C395.297 -671.339 401.786 -668.601 394 -671.894C392.005 -672.737 387.432 -674.668 381.815 -676.972C376.657 -679.087 366.429 -683.244 353.572 -688.096L0.5 247.5L-352.572 1183.1C-364.344 1178.65 -373.338 1174.99 -377.147 1173.43C-381.417 1171.68 -384.529 1170.36 -384.986 1170.16C-389.697 1168.17 -379.827 1172.36 -375.046 1174.35C-368.67 1177.01 -352.852 1183.56 -332.94 1190.93C-322.594 1194.76 -307.64 1200.13 -289.531 1205.95C-272.545 1211.41 -244.596 1219.94 -209.613 1228.13L18.5 254.5Z" fill="white" mask="url(#path-1-inside-1_21_2)"/>
</svg>
